# xmcd CD database file
#
# Track frame offsets:
#	150
#	21306
#	43743
#	67084
#	87217
#	108827
#	134184
#	152697
#	174645
#
# Disc length: 2631 seconds
#
# Revision: 0
# Processed by: cddbd v1.5.2PL0 Copyright (c) Steve Scherf et al.
# Submitted via: CDex 1.51
#
DISCID=7c0a4509
DTITLE=Marc Hellner - Marriages
DYEAR=2005
DGENRE=Jazz
TTITLE0=Handshaking
TTITLE1=Both Of Use
TTITLE2=Mine Is Made Of
TTITLE3=Last Chances
TTITLE4=Nonsense and Happiness
TTITLE5=You The Picture
TTITLE6=Overpasses
TTITLE7=Asleep On The Wing
TTITLE8=Orphea
EXTD=YEAR: 2005
EXTT0=
EXTT1=
EXTT2=
EXTT3=
EXTT4=
EXTT5=
EXTT6=
EXTT7=
EXTT8=
PLAYORDER=
